<mxfile host="app.diagrams.net" modified="2021-06-16T11:27:04.659Z" agent="5.0 (Windows NT 10.0; Win64; x64) AppleWebKit/537.36 (KHTML, like Gecko) Chrome/90.0.4430.212 Safari/537.36 OPR/76.0.4017.177" etag="iy5khMCP_yQqVtVehkXi" version="14.7.7" type="github">
  <diagram id="XmYXb6q1sJxBOcwfVzE4" name="Page-1">
    <mxGraphModel dx="2230" dy="753" grid="1" gridSize="10" guides="1" tooltips="1" connect="1" arrows="1" fold="1" page="1" pageScale="1" pageWidth="850" pageHeight="1100" math="0" shadow="0">
      <root>
        <mxCell id="0" />
        <mxCell id="1" parent="0" />
        <mxCell id="FBqpnrmvN5RfIPoNUzqK-1" value="&lt;b&gt;&lt;u&gt;&lt;span style=&quot;font-size: 18px&quot;&gt;DGA Blocker&amp;nbsp;&lt;/span&gt;&lt;br&gt;&lt;span style=&quot;font-size: 18px&quot;&gt;&amp;nbsp;&lt;/span&gt;&lt;font style=&quot;font-size: 11px&quot;&gt;FLOW DIAGRAM&lt;/font&gt;&lt;/u&gt;&lt;/b&gt;" style="text;html=1;strokeColor=none;fillColor=none;align=center;verticalAlign=middle;whiteSpace=wrap;rounded=0;" parent="1" vertex="1">
          <mxGeometry x="200" y="80" width="340" height="50" as="geometry" />
        </mxCell>
        <mxCell id="FBqpnrmvN5RfIPoNUzqK-28" style="edgeStyle=orthogonalEdgeStyle;rounded=0;orthogonalLoop=1;jettySize=auto;html=1;" parent="1" source="FBqpnrmvN5RfIPoNUzqK-2" target="FBqpnrmvN5RfIPoNUzqK-4" edge="1">
          <mxGeometry relative="1" as="geometry" />
        </mxCell>
        <mxCell id="FBqpnrmvN5RfIPoNUzqK-2" value="START" style="rounded=1;whiteSpace=wrap;html=1;fillColor=#f5f5f5;strokeColor=#666666;fontColor=#333333;" parent="1" vertex="1">
          <mxGeometry x="-35" y="350" width="40" height="40" as="geometry" />
        </mxCell>
        <mxCell id="FBqpnrmvN5RfIPoNUzqK-4" value="URL structural Validation&lt;br&gt;is done" style="whiteSpace=wrap;html=1;aspect=fixed;fillColor=#dae8fc;strokeColor=#6c8ebf;" parent="1" vertex="1">
          <mxGeometry x="55" y="332.5" width="75" height="75" as="geometry" />
        </mxCell>
        <mxCell id="Kyf35Kcozfyy5u9kXsoH-28" value="" style="edgeStyle=orthogonalEdgeStyle;rounded=0;orthogonalLoop=1;jettySize=auto;html=1;" parent="1" target="FBqpnrmvN5RfIPoNUzqK-2" edge="1">
          <mxGeometry relative="1" as="geometry">
            <mxPoint x="-80" y="370" as="sourcePoint" />
          </mxGeometry>
        </mxCell>
        <mxCell id="XKVxcPI2Sy27h-jT-PUb-154" value="" style="edgeStyle=orthogonalEdgeStyle;rounded=0;orthogonalLoop=1;jettySize=auto;html=1;exitX=1;exitY=0.5;exitDx=0;exitDy=0;" parent="1" source="FBqpnrmvN5RfIPoNUzqK-4" target="XKVxcPI2Sy27h-jT-PUb-153" edge="1">
          <mxGeometry relative="1" as="geometry" />
        </mxCell>
        <mxCell id="woVOYEoxqtmm7x9cwBOy-6" value="" style="edgeStyle=orthogonalEdgeStyle;rounded=0;orthogonalLoop=1;jettySize=auto;html=1;" parent="1" source="XKVxcPI2Sy27h-jT-PUb-153" target="woVOYEoxqtmm7x9cwBOy-5" edge="1">
          <mxGeometry relative="1" as="geometry" />
        </mxCell>
        <mxCell id="woVOYEoxqtmm7x9cwBOy-10" value="" style="edgeStyle=orthogonalEdgeStyle;rounded=0;orthogonalLoop=1;jettySize=auto;html=1;" parent="1" source="XKVxcPI2Sy27h-jT-PUb-153" target="woVOYEoxqtmm7x9cwBOy-9" edge="1">
          <mxGeometry relative="1" as="geometry" />
        </mxCell>
        <mxCell id="XKVxcPI2Sy27h-jT-PUb-153" value="&lt;span style=&quot;font-size: 10px&quot;&gt;valid /Invalid&lt;/span&gt;" style="rhombus;whiteSpace=wrap;html=1;fillColor=#d5e8d4;strokeColor=#82b366;" parent="1" vertex="1">
          <mxGeometry x="170" y="345" width="60" height="50" as="geometry" />
        </mxCell>
        <mxCell id="woVOYEoxqtmm7x9cwBOy-2" value="MNO Admin" style="shape=umlActor;verticalLabelPosition=bottom;verticalAlign=top;html=1;outlineConnect=0;" parent="1" vertex="1">
          <mxGeometry x="-120" y="322" width="30" height="60" as="geometry" />
        </mxCell>
        <mxCell id="woVOYEoxqtmm7x9cwBOy-7" style="edgeStyle=orthogonalEdgeStyle;rounded=0;orthogonalLoop=1;jettySize=auto;html=1;" parent="1" source="woVOYEoxqtmm7x9cwBOy-5" edge="1">
          <mxGeometry relative="1" as="geometry">
            <mxPoint x="-100" y="310" as="targetPoint" />
          </mxGeometry>
        </mxCell>
        <mxCell id="woVOYEoxqtmm7x9cwBOy-5" value="Invalid" style="whiteSpace=wrap;html=1;strokeColor=#82b366;fillColor=#d5e8d4;" parent="1" vertex="1">
          <mxGeometry x="160" y="250" width="80" height="40" as="geometry" />
        </mxCell>
        <mxCell id="woVOYEoxqtmm7x9cwBOy-8" value="URL rejected and &lt;br&gt;validation error thrown" style="text;html=1;align=center;verticalAlign=middle;resizable=0;points=[];autosize=1;strokeColor=none;" parent="1" vertex="1">
          <mxGeometry x="-80" y="240" width="130" height="30" as="geometry" />
        </mxCell>
        <mxCell id="R2pqtOluTCE_PIVTaJCl-3" value="" style="edgeStyle=orthogonalEdgeStyle;rounded=0;orthogonalLoop=1;jettySize=auto;html=1;" edge="1" parent="1" source="woVOYEoxqtmm7x9cwBOy-9" target="R2pqtOluTCE_PIVTaJCl-1">
          <mxGeometry relative="1" as="geometry" />
        </mxCell>
        <mxCell id="woVOYEoxqtmm7x9cwBOy-9" value="Valid" style="whiteSpace=wrap;html=1;strokeColor=#6c8ebf;fillColor=#dae8fc;" parent="1" vertex="1">
          <mxGeometry x="260" y="351.25" width="60" height="37.5" as="geometry" />
        </mxCell>
        <mxCell id="woVOYEoxqtmm7x9cwBOy-15" value="" style="edgeStyle=orthogonalEdgeStyle;rounded=0;orthogonalLoop=1;jettySize=auto;html=1;exitX=1;exitY=0.5;exitDx=0;exitDy=0;" parent="1" source="R2pqtOluTCE_PIVTaJCl-6" target="woVOYEoxqtmm7x9cwBOy-14" edge="1">
          <mxGeometry relative="1" as="geometry">
            <mxPoint x="565" y="370.1" as="sourcePoint" />
          </mxGeometry>
        </mxCell>
        <mxCell id="woVOYEoxqtmm7x9cwBOy-13" value="&lt;b&gt;&lt;u&gt;1.CRUD&amp;nbsp; &amp;nbsp;:DC Callback Scenario&lt;/u&gt;&lt;/b&gt;" style="text;html=1;align=center;verticalAlign=middle;resizable=0;points=[];autosize=1;strokeColor=none;" parent="1" vertex="1">
          <mxGeometry x="270" y="520" width="200" height="20" as="geometry" />
        </mxCell>
        <mxCell id="woVOYEoxqtmm7x9cwBOy-17" value="" style="edgeStyle=orthogonalEdgeStyle;rounded=0;orthogonalLoop=1;jettySize=auto;html=1;" parent="1" source="woVOYEoxqtmm7x9cwBOy-14" target="woVOYEoxqtmm7x9cwBOy-16" edge="1">
          <mxGeometry relative="1" as="geometry" />
        </mxCell>
        <mxCell id="woVOYEoxqtmm7x9cwBOy-21" value="" style="edgeStyle=orthogonalEdgeStyle;rounded=0;orthogonalLoop=1;jettySize=auto;html=1;" parent="1" source="woVOYEoxqtmm7x9cwBOy-14" target="woVOYEoxqtmm7x9cwBOy-20" edge="1">
          <mxGeometry relative="1" as="geometry" />
        </mxCell>
        <mxCell id="woVOYEoxqtmm7x9cwBOy-14" value="&lt;span style=&quot;font-size: 10px&quot;&gt;&lt;b&gt;DGA&amp;nbsp;&lt;/b&gt;&lt;/span&gt;" style="rhombus;whiteSpace=wrap;html=1;fillColor=#d5e8d4;strokeColor=#82b366;" parent="1" vertex="1">
          <mxGeometry x="560" y="345" width="60" height="50" as="geometry" />
        </mxCell>
        <mxCell id="woVOYEoxqtmm7x9cwBOy-18" style="edgeStyle=orthogonalEdgeStyle;rounded=0;orthogonalLoop=1;jettySize=auto;html=1;" parent="1" source="woVOYEoxqtmm7x9cwBOy-16" target="woVOYEoxqtmm7x9cwBOy-2" edge="1">
          <mxGeometry relative="1" as="geometry">
            <Array as="points">
              <mxPoint x="580" y="190" />
              <mxPoint x="-105" y="190" />
            </Array>
          </mxGeometry>
        </mxCell>
        <mxCell id="woVOYEoxqtmm7x9cwBOy-27" value="" style="edgeStyle=orthogonalEdgeStyle;rounded=0;orthogonalLoop=1;jettySize=auto;html=1;" parent="1" source="woVOYEoxqtmm7x9cwBOy-16" edge="1">
          <mxGeometry relative="1" as="geometry">
            <mxPoint x="690" y="260" as="targetPoint" />
          </mxGeometry>
        </mxCell>
        <mxCell id="woVOYEoxqtmm7x9cwBOy-16" value="Yes" style="whiteSpace=wrap;html=1;strokeColor=#82b366;fillColor=#d5e8d4;" parent="1" vertex="1">
          <mxGeometry x="545" y="282" width="90" height="40" as="geometry" />
        </mxCell>
        <mxCell id="woVOYEoxqtmm7x9cwBOy-19" value="URL&amp;nbsp; rejected as presence &lt;br&gt;of DGA detected , Error thrown and Alert logged" style="text;html=1;align=center;verticalAlign=middle;resizable=0;points=[];autosize=1;strokeColor=none;" parent="1" vertex="1">
          <mxGeometry x="-145" y="160" width="270" height="30" as="geometry" />
        </mxCell>
        <mxCell id="woVOYEoxqtmm7x9cwBOy-24" value="" style="edgeStyle=orthogonalEdgeStyle;rounded=0;orthogonalLoop=1;jettySize=auto;html=1;" parent="1" source="woVOYEoxqtmm7x9cwBOy-20" target="woVOYEoxqtmm7x9cwBOy-23" edge="1">
          <mxGeometry relative="1" as="geometry" />
        </mxCell>
        <mxCell id="woVOYEoxqtmm7x9cwBOy-20" value="NO DGA &lt;b&gt;: Safe&lt;/b&gt;" style="whiteSpace=wrap;html=1;strokeColor=#82b366;fillColor=#d5e8d4;" parent="1" vertex="1">
          <mxGeometry x="540" y="430" width="100" height="40" as="geometry" />
        </mxCell>
        <mxCell id="woVOYEoxqtmm7x9cwBOy-22" value="DB" style="shape=cylinder3;whiteSpace=wrap;html=1;boundedLbl=1;backgroundOutline=1;size=15;" parent="1" vertex="1">
          <mxGeometry x="730" y="315" width="60" height="80" as="geometry" />
        </mxCell>
        <mxCell id="woVOYEoxqtmm7x9cwBOy-25" value="" style="edgeStyle=orthogonalEdgeStyle;rounded=0;orthogonalLoop=1;jettySize=auto;html=1;" parent="1" source="woVOYEoxqtmm7x9cwBOy-23" target="woVOYEoxqtmm7x9cwBOy-22" edge="1">
          <mxGeometry relative="1" as="geometry" />
        </mxCell>
        <mxCell id="woVOYEoxqtmm7x9cwBOy-23" value="CRUD operation success" style="whiteSpace=wrap;html=1;strokeColor=#82b366;fillColor=#d5e8d4;" parent="1" vertex="1">
          <mxGeometry x="700" y="430" width="120" height="60" as="geometry" />
        </mxCell>
        <mxCell id="woVOYEoxqtmm7x9cwBOy-26" value="Entry made in the feature table" style="text;html=1;align=center;verticalAlign=middle;resizable=0;points=[];autosize=1;strokeColor=none;" parent="1" vertex="1">
          <mxGeometry x="715" y="490" width="180" height="20" as="geometry" />
        </mxCell>
        <mxCell id="woVOYEoxqtmm7x9cwBOy-29" style="edgeStyle=orthogonalEdgeStyle;rounded=0;orthogonalLoop=1;jettySize=auto;html=1;" parent="1" source="woVOYEoxqtmm7x9cwBOy-28" edge="1">
          <mxGeometry relative="1" as="geometry">
            <mxPoint x="770" y="310" as="targetPoint" />
          </mxGeometry>
        </mxCell>
        <mxCell id="woVOYEoxqtmm7x9cwBOy-28" value="Entry added to Firewall Rule / iptables rules" style="whiteSpace=wrap;html=1;" parent="1" vertex="1">
          <mxGeometry x="630" y="200" width="120" height="60" as="geometry" />
        </mxCell>
        <mxCell id="woVOYEoxqtmm7x9cwBOy-30" value="Stripped off the link &lt;br&gt;and stored for retraining" style="text;html=1;align=center;verticalAlign=middle;resizable=0;points=[];autosize=1;strokeColor=none;" parent="1" vertex="1">
          <mxGeometry x="770" y="250" width="140" height="30" as="geometry" />
        </mxCell>
        <mxCell id="woVOYEoxqtmm7x9cwBOy-31" style="edgeStyle=orthogonalEdgeStyle;rounded=0;orthogonalLoop=1;jettySize=auto;html=1;" parent="1" source="woVOYEoxqtmm7x9cwBOy-32" target="woVOYEoxqtmm7x9cwBOy-33" edge="1">
          <mxGeometry relative="1" as="geometry" />
        </mxCell>
        <mxCell id="woVOYEoxqtmm7x9cwBOy-32" value="START" style="rounded=1;whiteSpace=wrap;html=1;fillColor=#f5f5f5;strokeColor=#666666;fontColor=#333333;" parent="1" vertex="1">
          <mxGeometry x="-25" y="760" width="40" height="40" as="geometry" />
        </mxCell>
        <mxCell id="woVOYEoxqtmm7x9cwBOy-33" value="DNS Querying is done at the network Interface UDP53" style="whiteSpace=wrap;html=1;aspect=fixed;fillColor=#dae8fc;strokeColor=#6c8ebf;" parent="1" vertex="1">
          <mxGeometry x="50" y="731.25" width="97.5" height="97.5" as="geometry" />
        </mxCell>
        <mxCell id="woVOYEoxqtmm7x9cwBOy-34" value="" style="edgeStyle=orthogonalEdgeStyle;rounded=0;orthogonalLoop=1;jettySize=auto;html=1;" parent="1" target="woVOYEoxqtmm7x9cwBOy-32" edge="1">
          <mxGeometry relative="1" as="geometry">
            <mxPoint x="-70" y="780" as="sourcePoint" />
          </mxGeometry>
        </mxCell>
        <mxCell id="woVOYEoxqtmm7x9cwBOy-35" value="" style="edgeStyle=orthogonalEdgeStyle;rounded=0;orthogonalLoop=1;jettySize=auto;html=1;exitX=1;exitY=0.5;exitDx=0;exitDy=0;" parent="1" source="woVOYEoxqtmm7x9cwBOy-33" target="woVOYEoxqtmm7x9cwBOy-38" edge="1">
          <mxGeometry relative="1" as="geometry" />
        </mxCell>
        <mxCell id="woVOYEoxqtmm7x9cwBOy-36" value="" style="edgeStyle=orthogonalEdgeStyle;rounded=0;orthogonalLoop=1;jettySize=auto;html=1;" parent="1" source="woVOYEoxqtmm7x9cwBOy-38" target="woVOYEoxqtmm7x9cwBOy-41" edge="1">
          <mxGeometry relative="1" as="geometry" />
        </mxCell>
        <mxCell id="woVOYEoxqtmm7x9cwBOy-37" value="" style="edgeStyle=orthogonalEdgeStyle;rounded=0;orthogonalLoop=1;jettySize=auto;html=1;" parent="1" source="woVOYEoxqtmm7x9cwBOy-38" target="woVOYEoxqtmm7x9cwBOy-44" edge="1">
          <mxGeometry relative="1" as="geometry" />
        </mxCell>
        <mxCell id="woVOYEoxqtmm7x9cwBOy-38" value="&lt;span style=&quot;font-size: 10px&quot;&gt;valid /Invalid&lt;/span&gt;" style="rhombus;whiteSpace=wrap;html=1;fillColor=#d5e8d4;strokeColor=#82b366;" parent="1" vertex="1">
          <mxGeometry x="180" y="755" width="60" height="50" as="geometry" />
        </mxCell>
        <mxCell id="woVOYEoxqtmm7x9cwBOy-40" style="edgeStyle=orthogonalEdgeStyle;rounded=0;orthogonalLoop=1;jettySize=auto;html=1;" parent="1" source="woVOYEoxqtmm7x9cwBOy-41" edge="1">
          <mxGeometry relative="1" as="geometry">
            <mxPoint x="-90" y="720" as="targetPoint" />
          </mxGeometry>
        </mxCell>
        <mxCell id="woVOYEoxqtmm7x9cwBOy-41" value="Invalid" style="whiteSpace=wrap;html=1;strokeColor=#82b366;fillColor=#d5e8d4;" parent="1" vertex="1">
          <mxGeometry x="170" y="660" width="80" height="40" as="geometry" />
        </mxCell>
        <mxCell id="woVOYEoxqtmm7x9cwBOy-42" value="If structurally invalid, &lt;br&gt;Logging is done at APIGW side" style="text;html=1;align=center;verticalAlign=middle;resizable=0;points=[];autosize=1;strokeColor=none;" parent="1" vertex="1">
          <mxGeometry x="-95" y="650" width="180" height="30" as="geometry" />
        </mxCell>
        <mxCell id="woVOYEoxqtmm7x9cwBOy-43" value="" style="edgeStyle=orthogonalEdgeStyle;rounded=0;orthogonalLoop=1;jettySize=auto;html=1;" parent="1" source="woVOYEoxqtmm7x9cwBOy-44" edge="1">
          <mxGeometry relative="1" as="geometry">
            <mxPoint x="390" y="780.0999999999999" as="targetPoint" />
          </mxGeometry>
        </mxCell>
        <mxCell id="woVOYEoxqtmm7x9cwBOy-44" value="Valid" style="whiteSpace=wrap;html=1;strokeColor=#6c8ebf;fillColor=#dae8fc;" parent="1" vertex="1">
          <mxGeometry x="280" y="762.5" width="80" height="35" as="geometry" />
        </mxCell>
        <mxCell id="woVOYEoxqtmm7x9cwBOy-47" value="&lt;b&gt;&lt;u&gt;2. CRUD&amp;nbsp; &amp;nbsp;:Dynamic Scenario&lt;/u&gt;&lt;/b&gt;" style="text;html=1;align=center;verticalAlign=middle;resizable=0;points=[];autosize=1;strokeColor=none;" parent="1" vertex="1">
          <mxGeometry x="290" y="930" width="180" height="20" as="geometry" />
        </mxCell>
        <mxCell id="woVOYEoxqtmm7x9cwBOy-48" value="" style="edgeStyle=orthogonalEdgeStyle;rounded=0;orthogonalLoop=1;jettySize=auto;html=1;" parent="1" source="woVOYEoxqtmm7x9cwBOy-50" target="woVOYEoxqtmm7x9cwBOy-53" edge="1">
          <mxGeometry relative="1" as="geometry" />
        </mxCell>
        <mxCell id="woVOYEoxqtmm7x9cwBOy-49" value="" style="edgeStyle=orthogonalEdgeStyle;rounded=0;orthogonalLoop=1;jettySize=auto;html=1;" parent="1" source="woVOYEoxqtmm7x9cwBOy-50" target="woVOYEoxqtmm7x9cwBOy-56" edge="1">
          <mxGeometry relative="1" as="geometry" />
        </mxCell>
        <mxCell id="woVOYEoxqtmm7x9cwBOy-50" value="&lt;span style=&quot;font-size: 10px&quot;&gt;&lt;b&gt;DGA&amp;nbsp;&lt;/b&gt;&lt;/span&gt;" style="rhombus;whiteSpace=wrap;html=1;fillColor=#d5e8d4;strokeColor=#82b366;" parent="1" vertex="1">
          <mxGeometry x="610" y="755" width="60" height="50" as="geometry" />
        </mxCell>
        <mxCell id="woVOYEoxqtmm7x9cwBOy-51" style="edgeStyle=orthogonalEdgeStyle;rounded=0;orthogonalLoop=1;jettySize=auto;html=1;" parent="1" source="woVOYEoxqtmm7x9cwBOy-53" edge="1">
          <mxGeometry relative="1" as="geometry">
            <Array as="points">
              <mxPoint x="590" y="600" />
              <mxPoint x="-95" y="600" />
            </Array>
            <mxPoint x="-95" y="732" as="targetPoint" />
          </mxGeometry>
        </mxCell>
        <mxCell id="woVOYEoxqtmm7x9cwBOy-52" value="" style="edgeStyle=orthogonalEdgeStyle;rounded=0;orthogonalLoop=1;jettySize=auto;html=1;" parent="1" source="woVOYEoxqtmm7x9cwBOy-53" edge="1">
          <mxGeometry relative="1" as="geometry">
            <mxPoint x="740" y="670" as="targetPoint" />
          </mxGeometry>
        </mxCell>
        <mxCell id="woVOYEoxqtmm7x9cwBOy-53" value="Yes" style="whiteSpace=wrap;html=1;strokeColor=#82b366;fillColor=#d5e8d4;" parent="1" vertex="1">
          <mxGeometry x="595" y="692" width="90" height="40" as="geometry" />
        </mxCell>
        <mxCell id="woVOYEoxqtmm7x9cwBOy-54" value="URL&amp;nbsp; rejected as presence &lt;br&gt;of DGA detected , Error thrown and Alert logged" style="text;html=1;align=center;verticalAlign=middle;resizable=0;points=[];autosize=1;strokeColor=none;" parent="1" vertex="1">
          <mxGeometry x="-135" y="570" width="270" height="30" as="geometry" />
        </mxCell>
        <mxCell id="woVOYEoxqtmm7x9cwBOy-55" value="" style="edgeStyle=orthogonalEdgeStyle;rounded=0;orthogonalLoop=1;jettySize=auto;html=1;" parent="1" source="woVOYEoxqtmm7x9cwBOy-56" target="woVOYEoxqtmm7x9cwBOy-59" edge="1">
          <mxGeometry relative="1" as="geometry" />
        </mxCell>
        <mxCell id="woVOYEoxqtmm7x9cwBOy-56" value="NO DGA &lt;b&gt;: Safe&lt;/b&gt;" style="whiteSpace=wrap;html=1;strokeColor=#82b366;fillColor=#d5e8d4;" parent="1" vertex="1">
          <mxGeometry x="590" y="840" width="100" height="40" as="geometry" />
        </mxCell>
        <mxCell id="woVOYEoxqtmm7x9cwBOy-57" value="DB" style="shape=cylinder3;whiteSpace=wrap;html=1;boundedLbl=1;backgroundOutline=1;size=15;" parent="1" vertex="1">
          <mxGeometry x="780" y="725" width="60" height="80" as="geometry" />
        </mxCell>
        <mxCell id="woVOYEoxqtmm7x9cwBOy-58" value="" style="edgeStyle=orthogonalEdgeStyle;rounded=0;orthogonalLoop=1;jettySize=auto;html=1;" parent="1" source="woVOYEoxqtmm7x9cwBOy-59" target="woVOYEoxqtmm7x9cwBOy-57" edge="1">
          <mxGeometry relative="1" as="geometry" />
        </mxCell>
        <mxCell id="woVOYEoxqtmm7x9cwBOy-59" value="APIGW proceeds" style="whiteSpace=wrap;html=1;fillColor=#f5f5f5;strokeColor=#666666;fontColor=#333333;" parent="1" vertex="1">
          <mxGeometry x="750" y="840" width="90" height="40" as="geometry" />
        </mxCell>
        <mxCell id="woVOYEoxqtmm7x9cwBOy-61" style="edgeStyle=orthogonalEdgeStyle;rounded=0;orthogonalLoop=1;jettySize=auto;html=1;" parent="1" source="woVOYEoxqtmm7x9cwBOy-62" edge="1">
          <mxGeometry relative="1" as="geometry">
            <mxPoint x="820" y="720" as="targetPoint" />
          </mxGeometry>
        </mxCell>
        <mxCell id="woVOYEoxqtmm7x9cwBOy-62" value="Entry added to Firewall Rule / iptables rules" style="whiteSpace=wrap;html=1;" parent="1" vertex="1">
          <mxGeometry x="680" y="610" width="120" height="60" as="geometry" />
        </mxCell>
        <mxCell id="woVOYEoxqtmm7x9cwBOy-63" value="Stripped off the link &lt;br&gt;and stored for retraining" style="text;html=1;align=center;verticalAlign=middle;resizable=0;points=[];autosize=1;strokeColor=none;" parent="1" vertex="1">
          <mxGeometry x="820" y="660" width="140" height="30" as="geometry" />
        </mxCell>
        <mxCell id="woVOYEoxqtmm7x9cwBOy-64" value="HSS/HLR" style="rounded=0;whiteSpace=wrap;html=1;" parent="1" vertex="1">
          <mxGeometry x="-165" y="750" width="120" height="60" as="geometry" />
        </mxCell>
        <mxCell id="woVOYEoxqtmm7x9cwBOy-65" value="&lt;b&gt;Produces Events at TCP socket ,&lt;br&gt;Which has the&amp;nbsp; DC URL (dns) and&amp;nbsp;&lt;br&gt;shoot the call to DC via our&amp;nbsp; North Bound API Gateway&lt;br&gt;&lt;/b&gt;" style="text;html=1;align=center;verticalAlign=middle;resizable=0;points=[];autosize=1;strokeColor=none;" parent="1" vertex="1">
          <mxGeometry x="-270" y="810" width="330" height="50" as="geometry" />
        </mxCell>
        <mxCell id="woVOYEoxqtmm7x9cwBOy-66" value="Only success event log &lt;br&gt;is done in this case" style="text;html=1;align=center;verticalAlign=middle;resizable=0;points=[];autosize=1;strokeColor=none;" parent="1" vertex="1">
          <mxGeometry x="730" y="880" width="140" height="30" as="geometry" />
        </mxCell>
        <mxCell id="woVOYEoxqtmm7x9cwBOy-67" value="For Blocking" style="text;html=1;align=center;verticalAlign=middle;resizable=0;points=[];autosize=1;strokeColor=none;" parent="1" vertex="1">
          <mxGeometry x="700" y="590" width="80" height="20" as="geometry" />
        </mxCell>
        <mxCell id="woVOYEoxqtmm7x9cwBOy-68" value="For Blocking" style="text;html=1;align=center;verticalAlign=middle;resizable=0;points=[];autosize=1;strokeColor=none;" parent="1" vertex="1">
          <mxGeometry x="650" y="180" width="80" height="20" as="geometry" />
        </mxCell>
        <mxCell id="R2pqtOluTCE_PIVTaJCl-5" value="" style="edgeStyle=orthogonalEdgeStyle;rounded=0;orthogonalLoop=1;jettySize=auto;html=1;" edge="1" parent="1" source="R2pqtOluTCE_PIVTaJCl-1" target="R2pqtOluTCE_PIVTaJCl-4">
          <mxGeometry relative="1" as="geometry" />
        </mxCell>
        <mxCell id="R2pqtOluTCE_PIVTaJCl-1" value="&lt;font style=&quot;font-size: 11px&quot;&gt;Embe-&lt;br&gt;ddings&amp;nbsp;&lt;br&gt;Layer&lt;/font&gt;" style="rounded=0;whiteSpace=wrap;html=1;fillColor=#f8cecc;strokeColor=#b85450;" vertex="1" parent="1">
          <mxGeometry x="345" y="340" width="45" height="60" as="geometry" />
        </mxCell>
        <mxCell id="R2pqtOluTCE_PIVTaJCl-7" value="" style="edgeStyle=orthogonalEdgeStyle;rounded=0;orthogonalLoop=1;jettySize=auto;html=1;" edge="1" parent="1" source="R2pqtOluTCE_PIVTaJCl-4" target="R2pqtOluTCE_PIVTaJCl-6">
          <mxGeometry relative="1" as="geometry" />
        </mxCell>
        <mxCell id="R2pqtOluTCE_PIVTaJCl-4" value="LSTM" style="rounded=0;whiteSpace=wrap;html=1;fillColor=#f8cecc;strokeColor=#b85450;" vertex="1" parent="1">
          <mxGeometry x="410" y="340" width="45" height="60" as="geometry" />
        </mxCell>
        <mxCell id="R2pqtOluTCE_PIVTaJCl-6" value="Logistic&amp;nbsp;&lt;br&gt;Regre-ssion" style="rounded=0;whiteSpace=wrap;html=1;fillColor=#f8cecc;strokeColor=#b85450;" vertex="1" parent="1">
          <mxGeometry x="475" y="340" width="45" height="60" as="geometry" />
        </mxCell>
        <mxCell id="R2pqtOluTCE_PIVTaJCl-8" value="LR Classifier" style="text;html=1;align=center;verticalAlign=middle;resizable=0;points=[];autosize=1;strokeColor=none;" vertex="1" parent="1">
          <mxGeometry x="455" y="400" width="80" height="20" as="geometry" />
        </mxCell>
        <mxCell id="R2pqtOluTCE_PIVTaJCl-10" value="" style="edgeStyle=orthogonalEdgeStyle;rounded=0;orthogonalLoop=1;jettySize=auto;html=1;" edge="1" parent="1" source="R2pqtOluTCE_PIVTaJCl-11" target="R2pqtOluTCE_PIVTaJCl-13">
          <mxGeometry relative="1" as="geometry" />
        </mxCell>
        <mxCell id="R2pqtOluTCE_PIVTaJCl-11" value="&lt;font style=&quot;font-size: 11px&quot;&gt;Embe-&lt;br&gt;ddings&amp;nbsp;&lt;br&gt;Layer&lt;/font&gt;" style="rounded=0;whiteSpace=wrap;html=1;fillColor=#f8cecc;strokeColor=#b85450;" vertex="1" parent="1">
          <mxGeometry x="385" y="745" width="45" height="60" as="geometry" />
        </mxCell>
        <mxCell id="R2pqtOluTCE_PIVTaJCl-16" value="" style="edgeStyle=orthogonalEdgeStyle;rounded=0;orthogonalLoop=1;jettySize=auto;html=1;" edge="1" parent="1" source="R2pqtOluTCE_PIVTaJCl-13" target="R2pqtOluTCE_PIVTaJCl-14">
          <mxGeometry relative="1" as="geometry" />
        </mxCell>
        <mxCell id="R2pqtOluTCE_PIVTaJCl-13" value="LSTM" style="rounded=0;whiteSpace=wrap;html=1;fillColor=#f8cecc;strokeColor=#b85450;" vertex="1" parent="1">
          <mxGeometry x="450" y="745" width="45" height="60" as="geometry" />
        </mxCell>
        <mxCell id="R2pqtOluTCE_PIVTaJCl-17" value="" style="edgeStyle=orthogonalEdgeStyle;rounded=0;orthogonalLoop=1;jettySize=auto;html=1;" edge="1" parent="1" source="R2pqtOluTCE_PIVTaJCl-14" target="woVOYEoxqtmm7x9cwBOy-50">
          <mxGeometry relative="1" as="geometry" />
        </mxCell>
        <mxCell id="R2pqtOluTCE_PIVTaJCl-14" value="Logistic&amp;nbsp;&lt;br&gt;Regre-ssion" style="rounded=0;whiteSpace=wrap;html=1;fillColor=#f8cecc;strokeColor=#b85450;" vertex="1" parent="1">
          <mxGeometry x="515" y="745" width="45" height="60" as="geometry" />
        </mxCell>
        <mxCell id="R2pqtOluTCE_PIVTaJCl-18" value="LR Classifier" style="text;html=1;align=center;verticalAlign=middle;resizable=0;points=[];autosize=1;strokeColor=none;" vertex="1" parent="1">
          <mxGeometry x="495" y="810" width="80" height="20" as="geometry" />
        </mxCell>
      </root>
    </mxGraphModel>
  </diagram>
</mxfile>
